<svg xmlns="http://www.w3.org/2000/svg" viewBox="0 0 32 32">
  <rect width="32" height="32" rx="8" fill="#1a1a2e"/>
  <path d="M7 10c0-3.3 4-6 9-6s9 2.7 9 6-4 6-9 6c-1.2 0-2.3-.1-3.3-.4L8 18v-5.3C7.4 11.8 7 10.9 7 10z" fill="#e94560"/>
  <circle cx="12" cy="10" r="1.2" fill="#fff"/>
  <circle cx="16" cy="10" r="1.2" fill="#fff"/>
  <circle cx="20" cy="10" r="1.2" fill="#fff"/>
  <path d="M16 20v2m-2 1c0 1.1.9 2 2 2s2-.9 2-2" stroke="#f5c518" stroke-width="1.5" stroke-linecap="round" fill="none"/>
  <circle cx="16" cy="19" r="3" fill="#f5c518" opacity="0.9"/>
</svg>
